<svg width="125" height="46" viewBox="0 0 125 46" fill="none" xmlns="http://www.w3.org/2000/svg">
<path d="M0 43.5811C46.6019 43.5812 94.3698 27.8746 124.202 43.5812C99.6532 35.1688 38.2801 50.7591 0 43.5811Z" fill="url(#paint0_linear_2002_3)"/>
<g filter="url(#filter0_i_2002_3)">
<rect x="46" y="10.265" width="47" height="20" rx="2.43534" fill="url(#paint1_linear_2002_3)"/>
</g>
<g filter="url(#filter1_i_2002_3)">
<rect x="21.5288" width="26.7887" height="34.9066" rx="4.0589" fill="url(#paint2_linear_2002_3)"/>
</g>
<path d="M41.1763 22.1608C41.1763 23.3361 40.8973 24.3213 40.3392 25.1161C39.7895 25.911 39.0285 26.5072 38.0561 26.9046C37.0921 27.302 35.9928 27.5008 34.7582 27.5008C33.5321 27.5008 32.4286 27.302 31.4477 26.9046C30.4752 26.5072 29.7057 25.911 29.1392 25.1161C28.5726 24.3213 28.2893 23.3361 28.2893 22.1608C28.2893 21.3574 28.45 20.6387 28.7713 20.0045C29.1011 19.3618 29.5577 18.8164 30.1412 18.3682C30.7247 17.9201 31.4054 17.5776 32.1833 17.3408C32.9697 17.104 33.8196 16.9857 34.7328 16.9857C35.9674 16.9857 37.0709 17.1971 38.0434 17.6199C39.0158 18.0342 39.7811 18.6261 40.3392 19.3956C40.8973 20.1651 41.1763 21.0868 41.1763 22.1608ZM36.8764 21.8183C36.8764 21.3109 36.7877 20.8839 36.6101 20.5372C36.4325 20.182 36.183 19.9115 35.8617 19.7254C35.5404 19.5394 35.1641 19.4464 34.7328 19.4464C34.31 19.4464 33.9337 19.5394 33.604 19.7254C33.2826 19.9115 33.0289 20.182 32.8429 20.5372C32.6653 20.8839 32.5765 21.3109 32.5765 21.8183C32.5765 22.3087 32.6696 22.7358 32.8556 23.0994C33.0416 23.4545 33.2953 23.7294 33.6166 23.9238C33.9464 24.1099 34.3269 24.2029 34.7582 24.2029C35.1895 24.2029 35.5615 24.1099 35.8744 23.9238C36.1957 23.7294 36.441 23.4545 36.6101 23.0994C36.7877 22.7358 36.8764 22.3087 36.8764 21.8183ZM40.7958 13.7132C40.7958 14.6772 40.5379 15.5228 40.0221 16.25C39.5147 16.9687 38.8044 17.5311 37.8912 17.937C36.9864 18.3344 35.942 18.5331 34.7582 18.5331C33.5828 18.5331 32.5343 18.3344 31.6126 17.937C30.6993 17.5311 29.9805 16.9687 29.4563 16.25C28.9404 15.5228 28.6825 14.6772 28.6825 13.7132C28.6825 12.5801 28.9404 11.6288 29.4563 10.8593C29.9805 10.0898 30.6993 9.50629 31.6126 9.10885C32.5258 8.71142 33.5659 8.5127 34.7328 8.5127C35.9167 8.5127 36.9652 8.71142 37.8785 9.10885C38.7917 9.50629 39.5063 10.0898 40.0221 10.8593C40.5379 11.6288 40.7958 12.5801 40.7958 13.7132ZM36.5213 13.9415C36.5213 13.5018 36.4536 13.1255 36.3183 12.8126C36.183 12.4913 35.9843 12.246 35.7222 12.0769C35.4601 11.8993 35.1303 11.8106 34.7328 11.8106C34.3523 11.8106 34.031 11.8951 33.7688 12.0642C33.5067 12.2334 33.308 12.4786 33.1727 12.7999C33.0374 13.1128 32.9697 13.4933 32.9697 13.9415C32.9697 14.3812 33.0374 14.7659 33.1727 15.0957C33.308 15.4255 33.5067 15.6834 33.7688 15.8695C34.0394 16.0555 34.3692 16.1485 34.7582 16.1485C35.1556 16.1485 35.4812 16.0555 35.7349 15.8695C35.997 15.6834 36.1915 15.4255 36.3183 15.0957C36.4536 14.7659 36.5213 14.3812 36.5213 13.9415Z" fill="white"/>
<path d="M64.9323 23.6086V26.4943H55.6317V23.6086H64.9323ZM64.8213 16.5056L57.3076 26.4943H54.7438V24.4077L62.2465 14.4856H64.8213V16.5056ZM63.5894 14.4856V17.3712H54.9658V14.4856H63.5894ZM66.619 25.2807C66.619 24.912 66.7521 24.6048 67.0184 24.359C67.2846 24.1081 67.6277 23.9827 68.0476 23.9827C68.4726 23.9827 68.8156 24.1081 69.0768 24.359C69.343 24.6048 69.4762 24.912 69.4762 25.2807C69.4762 25.6494 69.343 25.9592 69.0768 26.2101C68.8156 26.4559 68.4726 26.5787 68.0476 26.5787C67.6277 26.5787 67.2846 26.4559 67.0184 26.2101C66.7521 25.9592 66.619 25.6494 66.619 25.2807ZM73.8234 20.2422V26.4943H71.235V18.1838H73.6544L73.8234 20.2422ZM76.2812 18.1223L76.2352 20.5264C76.1327 20.5161 75.9945 20.5033 75.8204 20.488C75.6463 20.4726 75.5004 20.4649 75.3826 20.4649C75.0805 20.4649 74.8193 20.5008 74.5992 20.5725C74.3841 20.639 74.2049 20.7414 74.0615 20.8797C73.9233 21.0128 73.8209 21.1818 73.7543 21.3866C73.6929 21.5914 73.6647 21.8295 73.6698 22.1009L73.2013 21.7937C73.2013 21.2356 73.2551 20.7286 73.3626 20.2729C73.4752 19.8121 73.634 19.4153 73.8388 19.0824C74.0436 18.7445 74.2919 18.4859 74.5838 18.3067C74.8757 18.1223 75.2034 18.0302 75.5669 18.0302C75.6949 18.0302 75.8204 18.0379 75.9433 18.0532C76.0713 18.0686 76.1839 18.0916 76.2812 18.1223ZM82.0264 24.4742V18.1838H84.6224V26.4943H82.1953L82.0264 24.4742ZM82.2722 22.7845L82.9481 22.7691C82.9481 23.3273 82.8815 23.8444 82.7484 24.3206C82.6152 24.7917 82.4181 25.2014 82.1569 25.5495C81.9009 25.8977 81.5835 26.1691 81.2045 26.3637C80.8307 26.5531 80.3981 26.6479 79.9065 26.6479C79.4969 26.6479 79.1205 26.5916 78.7774 26.4789C78.4395 26.3611 78.1476 26.1794 77.9019 25.9336C77.6561 25.6827 77.4641 25.3626 77.3258 24.9735C77.1927 24.5792 77.1261 24.1081 77.1261 23.5602V18.1838H79.7145V23.5756C79.7145 23.7599 79.7375 23.9187 79.7836 24.0518C79.8297 24.1849 79.8963 24.2976 79.9833 24.3898C80.0704 24.4768 80.1779 24.5434 80.3059 24.5895C80.439 24.6304 80.5901 24.6509 80.7591 24.6509C81.1482 24.6509 81.4529 24.569 81.6731 24.4051C81.8932 24.2413 82.0469 24.0185 82.1339 23.7369C82.2261 23.4553 82.2722 23.1378 82.2722 22.7845Z" fill="white"/>
<defs>
<filter id="filter0_i_2002_3" x="46" y="10.265" width="47" height="24" filterUnits="userSpaceOnUse" color-interpolation-filters="sRGB">
<feFlood flood-opacity="0" result="BackgroundImageFix"/>
<feBlend mode="normal" in="SourceGraphic" in2="BackgroundImageFix" result="shape"/>
<feColorMatrix in="SourceAlpha" type="matrix" values="0 0 0 0 0 0 0 0 0 0 0 0 0 0 0 0 0 0 127 0" result="hardAlpha"/>
<feOffset dy="4"/>
<feGaussianBlur stdDeviation="2"/>
<feComposite in2="hardAlpha" operator="arithmetic" k2="-1" k3="1"/>
<feColorMatrix type="matrix" values="0 0 0 0 1 0 0 0 0 1 0 0 0 0 1 0 0 0 0.17 0"/>
<feBlend mode="normal" in2="shape" result="effect1_innerShadow_2002_3"/>
</filter>
<filter id="filter1_i_2002_3" x="21.5288" y="0" width="26.7887" height="38.9065" filterUnits="userSpaceOnUse" color-interpolation-filters="sRGB">
<feFlood flood-opacity="0" result="BackgroundImageFix"/>
<feBlend mode="normal" in="SourceGraphic" in2="BackgroundImageFix" result="shape"/>
<feColorMatrix in="SourceAlpha" type="matrix" values="0 0 0 0 0 0 0 0 0 0 0 0 0 0 0 0 0 0 127 0" result="hardAlpha"/>
<feOffset dy="4"/>
<feGaussianBlur stdDeviation="2"/>
<feComposite in2="hardAlpha" operator="arithmetic" k2="-1" k3="1"/>
<feColorMatrix type="matrix" values="0 0 0 0 1 0 0 0 0 1 0 0 0 0 1 0 0 0 0.17 0"/>
<feBlend mode="normal" in2="shape" result="effect1_innerShadow_2002_3"/>
</filter>
<linearGradient id="paint0_linear_2002_3" x1="2.71404e-07" y1="48.6654" x2="121.047" y2="20.4449" gradientUnits="userSpaceOnUse">
<stop stop-color="#FFBD4C"/>
<stop offset="1" stop-color="#DC8005"/>
</linearGradient>
<linearGradient id="paint1_linear_2002_3" x1="69.5" y1="10.265" x2="69.5" y2="30.265" gradientUnits="userSpaceOnUse">
<stop stop-color="#4B4B4B"/>
<stop offset="0.505989" stop-color="#5F5F5F"/>
<stop offset="1" stop-color="#4B4B4B"/>
</linearGradient>
<linearGradient id="paint2_linear_2002_3" x1="34.9232" y1="0" x2="34.9232" y2="34.9066" gradientUnits="userSpaceOnUse">
<stop stop-color="#FFBD4C"/>
<stop offset="1" stop-color="#D87B03"/>
</linearGradient>
</defs>
</svg>
