<svg width="125" height="47" viewBox="0 0 125 47" fill="none" xmlns="http://www.w3.org/2000/svg">
<path d="M0 44.316C46.6019 44.316 94.3698 28.6095 124.202 44.316C99.6532 35.9037 38.2801 51.4939 0 44.316Z" fill="url(#paint0_linear_3_106)"/>
<g filter="url(#filter0_di_3_106)">
<rect x="46" y="10.9999" width="47" height="20" rx="2.43534" fill="url(#paint1_linear_3_106)"/>
</g>
<g filter="url(#filter1_di_3_106)">
<rect x="21.5288" y="0.734863" width="26.7887" height="34.9066" rx="4.0589" fill="url(#paint2_linear_3_106)"/>
</g>
<path d="M41.1763 22.8956C41.1763 24.071 40.8973 25.0561 40.3392 25.8509C39.7895 26.6458 39.0285 27.242 38.0561 27.6394C37.0921 28.0368 35.9928 28.2356 34.7582 28.2356C33.5321 28.2356 32.4286 28.0368 31.4477 27.6394C30.4752 27.242 29.7057 26.6458 29.1392 25.8509C28.5726 25.0561 28.2893 24.071 28.2893 22.8956C28.2893 22.0922 28.45 21.3735 28.7713 20.7393C29.1011 20.0966 29.5577 19.5512 30.1412 19.103C30.7247 18.6549 31.4054 18.3124 32.1833 18.0756C32.9697 17.8388 33.8196 17.7205 34.7328 17.7205C35.9674 17.7205 37.0709 17.9319 38.0434 18.3547C39.0158 18.769 39.7811 19.3609 40.3392 20.1304C40.8973 20.8999 41.1763 21.8216 41.1763 22.8956ZM36.8764 22.5531C36.8764 22.0457 36.7877 21.6187 36.6101 21.272C36.4325 20.9168 36.183 20.6463 35.8617 20.4602C35.5404 20.2742 35.1641 20.1812 34.7328 20.1812C34.31 20.1812 33.9337 20.2742 33.604 20.4602C33.2826 20.6463 33.0289 20.9168 32.8429 21.272C32.6653 21.6187 32.5765 22.0457 32.5765 22.5531C32.5765 23.0435 32.6696 23.4706 32.8556 23.8342C33.0416 24.1893 33.2953 24.4642 33.6166 24.6586C33.9464 24.8447 34.3269 24.9377 34.7582 24.9377C35.1895 24.9377 35.5615 24.8447 35.8744 24.6586C36.1957 24.4642 36.441 24.1893 36.6101 23.8342C36.7877 23.4706 36.8764 23.0435 36.8764 22.5531ZM40.7958 14.448C40.7958 15.412 40.5379 16.2576 40.0221 16.9848C39.5147 17.7036 38.8044 18.2659 37.8912 18.6718C36.9864 19.0692 35.942 19.2679 34.7582 19.2679C33.5828 19.2679 32.5343 19.0692 31.6126 18.6718C30.6993 18.2659 29.9805 17.7036 29.4563 16.9848C28.9404 16.2576 28.6825 15.412 28.6825 14.448C28.6825 13.3149 28.9404 12.3636 29.4563 11.5941C29.9805 10.8246 30.6993 10.2411 31.6126 9.84366C32.5258 9.44622 33.5659 9.24751 34.7328 9.24751C35.9167 9.24751 36.9652 9.44622 37.8785 9.84366C38.7917 10.2411 39.5063 10.8246 40.0221 11.5941C40.5379 12.3636 40.7958 13.3149 40.7958 14.448ZM36.5213 14.6763C36.5213 14.2366 36.4536 13.8603 36.3183 13.5474C36.183 13.2261 35.9843 12.9808 35.7222 12.8117C35.4601 12.6342 35.1303 12.5454 34.7328 12.5454C34.3523 12.5454 34.031 12.6299 33.7688 12.799C33.5067 12.9682 33.308 13.2134 33.1727 13.5347C33.0374 13.8476 32.9697 14.2281 32.9697 14.6763C32.9697 15.116 33.0374 15.5008 33.1727 15.8305C33.308 16.1603 33.5067 16.4182 33.7688 16.6043C34.0394 16.7903 34.3692 16.8833 34.7582 16.8833C35.1556 16.8833 35.4812 16.7903 35.7349 16.6043C35.997 16.4182 36.1915 16.1603 36.3183 15.8305C36.4536 15.5008 36.5213 15.116 36.5213 14.6763Z" fill="white"/>
<path d="M64.9323 24.3435V27.2291H55.6317V24.3435H64.9323ZM64.8213 17.2404L57.3076 27.2291H54.7438V25.1426L62.2465 15.2205H64.8213V17.2404ZM63.5894 15.2205V18.1061H54.9658V15.2205H63.5894ZM66.619 26.0156C66.619 25.6469 66.7521 25.3397 67.0184 25.0939C67.2846 24.843 67.6277 24.7175 68.0476 24.7175C68.4726 24.7175 68.8156 24.843 69.0768 25.0939C69.343 25.3397 69.4762 25.6469 69.4762 26.0156C69.4762 26.3843 69.343 26.694 69.0768 26.9449C68.8156 27.1907 68.4726 27.3136 68.0476 27.3136C67.6277 27.3136 67.2846 27.1907 67.0184 26.9449C66.7521 26.694 66.619 26.3843 66.619 26.0156ZM73.8234 20.9771V27.2291H71.235V18.9186H73.6544L73.8234 20.9771ZM76.2812 18.8572L76.2352 21.2613C76.1327 21.251 75.9945 21.2382 75.8204 21.2228C75.6463 21.2075 75.5004 21.1998 75.3826 21.1998C75.0805 21.1998 74.8193 21.2356 74.5992 21.3073C74.3841 21.3739 74.2049 21.4763 74.0615 21.6146C73.9233 21.7477 73.8209 21.9167 73.7543 22.1215C73.6929 22.3263 73.6647 22.5644 73.6698 22.8358L73.2013 22.5286C73.2013 21.9704 73.2551 21.4635 73.3626 21.0078C73.4752 20.5469 73.634 20.1501 73.8388 19.8173C74.0436 19.4793 74.2919 19.2208 74.5838 19.0415C74.8757 18.8572 75.2034 18.765 75.5669 18.765C75.6949 18.765 75.8204 18.7727 75.9433 18.7881C76.0713 18.8034 76.1839 18.8265 76.2812 18.8572ZM82.0264 25.2091V18.9186H84.6224V27.2291H82.1953L82.0264 25.2091ZM82.2722 23.5194L82.9481 23.504C82.9481 24.0621 82.8815 24.5793 82.7484 25.0555C82.6152 25.5266 82.4181 25.9362 82.1569 26.2844C81.9009 26.6326 81.5835 26.904 81.2045 27.0986C80.8307 27.288 80.3981 27.3827 79.9065 27.3827C79.4969 27.3827 79.1205 27.3264 78.7774 27.2138C78.4395 27.096 78.1476 26.9142 77.9019 26.6684C77.6561 26.4175 77.4641 26.0975 77.3258 25.7084C77.1927 25.3141 77.1261 24.843 77.1261 24.2951V18.9186H79.7145V24.3105C79.7145 24.4948 79.7375 24.6535 79.7836 24.7867C79.8297 24.9198 79.8963 25.0325 79.9833 25.1246C80.0704 25.2117 80.1779 25.2782 80.3059 25.3243C80.439 25.3653 80.5901 25.3858 80.7591 25.3858C81.1482 25.3858 81.4529 25.3038 81.6731 25.14C81.8932 24.9761 82.0469 24.7534 82.1339 24.4718C82.2261 24.1901 82.2722 23.8727 82.2722 23.5194Z" fill="white"/>
<defs>
<filter id="filter0_di_3_106" x="42" y="10.9999" width="55" height="28" filterUnits="userSpaceOnUse" color-interpolation-filters="sRGB">
<feFlood flood-opacity="0" result="BackgroundImageFix"/>
<feColorMatrix in="SourceAlpha" type="matrix" values="0 0 0 0 0 0 0 0 0 0 0 0 0 0 0 0 0 0 127 0" result="hardAlpha"/>
<feOffset dy="4"/>
<feGaussianBlur stdDeviation="2"/>
<feComposite in2="hardAlpha" operator="out"/>
<feColorMatrix type="matrix" values="0 0 0 0 0 0 0 0 0 0 0 0 0 0 0 0 0 0 0.25 0"/>
<feBlend mode="normal" in2="BackgroundImageFix" result="effect1_dropShadow_3_106"/>
<feBlend mode="normal" in="SourceGraphic" in2="effect1_dropShadow_3_106" result="shape"/>
<feColorMatrix in="SourceAlpha" type="matrix" values="0 0 0 0 0 0 0 0 0 0 0 0 0 0 0 0 0 0 127 0" result="hardAlpha"/>
<feOffset dy="4"/>
<feGaussianBlur stdDeviation="2"/>
<feComposite in2="hardAlpha" operator="arithmetic" k2="-1" k3="1"/>
<feColorMatrix type="matrix" values="0 0 0 0 1 0 0 0 0 1 0 0 0 0 1 0 0 0 0.17 0"/>
<feBlend mode="normal" in2="shape" result="effect2_innerShadow_3_106"/>
</filter>
<filter id="filter1_di_3_106" x="17.5288" y="0.734863" width="34.7887" height="42.9066" filterUnits="userSpaceOnUse" color-interpolation-filters="sRGB">
<feFlood flood-opacity="0" result="BackgroundImageFix"/>
<feColorMatrix in="SourceAlpha" type="matrix" values="0 0 0 0 0 0 0 0 0 0 0 0 0 0 0 0 0 0 127 0" result="hardAlpha"/>
<feOffset dy="4"/>
<feGaussianBlur stdDeviation="2"/>
<feComposite in2="hardAlpha" operator="out"/>
<feColorMatrix type="matrix" values="0 0 0 0 0 0 0 0 0 0 0 0 0 0 0 0 0 0 0.25 0"/>
<feBlend mode="normal" in2="BackgroundImageFix" result="effect1_dropShadow_3_106"/>
<feBlend mode="normal" in="SourceGraphic" in2="effect1_dropShadow_3_106" result="shape"/>
<feColorMatrix in="SourceAlpha" type="matrix" values="0 0 0 0 0 0 0 0 0 0 0 0 0 0 0 0 0 0 127 0" result="hardAlpha"/>
<feOffset dy="4"/>
<feGaussianBlur stdDeviation="2"/>
<feComposite in2="hardAlpha" operator="arithmetic" k2="-1" k3="1"/>
<feColorMatrix type="matrix" values="0 0 0 0 1 0 0 0 0 1 0 0 0 0 1 0 0 0 0.17 0"/>
<feBlend mode="normal" in2="shape" result="effect2_innerShadow_3_106"/>
</filter>
<linearGradient id="paint0_linear_3_106" x1="2.71404e-07" y1="49.4003" x2="121.047" y2="21.1798" gradientUnits="userSpaceOnUse">
<stop stop-color="#FFBD4C"/>
<stop offset="1" stop-color="#DC8005"/>
</linearGradient>
<linearGradient id="paint1_linear_3_106" x1="69.5" y1="10.9999" x2="69.5" y2="30.9999" gradientUnits="userSpaceOnUse">
<stop stop-color="#4B4B4B"/>
<stop offset="0.505989" stop-color="#5F5F5F"/>
<stop offset="1" stop-color="#4B4B4B"/>
</linearGradient>
<linearGradient id="paint2_linear_3_106" x1="34.9232" y1="0.734863" x2="34.9232" y2="35.6414" gradientUnits="userSpaceOnUse">
<stop stop-color="#FFBD4C"/>
<stop offset="1" stop-color="#D87B03"/>
</linearGradient>
</defs>
</svg>
