<svg width="30" height="30" viewBox="0 0 30 30" fill="none" xmlns="http://www.w3.org/2000/svg">
<g filter="url(#filter0_i_2002_45)">
<rect width="30" height="30" rx="15" fill="url(#paint0_linear_2002_45)"/>
</g>
<path d="M16.2499 8.33337C15.9184 8.33337 15.6005 8.46507 15.3661 8.69949C15.1316 8.93391 14.9999 9.25185 14.9999 9.58337C14.9999 9.91489 15.1316 10.2328 15.3661 10.4673C15.6005 10.7017 15.9184 10.8334 16.2499 10.8334C16.5815 10.8334 16.8994 10.7017 17.1338 10.4673C17.3682 10.2328 17.4999 9.91489 17.4999 9.58337C17.4999 9.25185 17.3682 8.93391 17.1338 8.69949C16.8994 8.46507 16.5815 8.33337 16.2499 8.33337ZM15.9499 12.3084C14.9583 12.3917 12.2499 14.55 12.2499 14.55C12.0833 14.675 12.1333 14.6667 12.2666 14.9C12.3999 15.125 12.3833 15.1417 12.5416 15.0334C12.7083 14.925 12.9833 14.75 13.4416 14.4667C15.2083 13.3334 13.7249 15.95 12.9666 20.3584C12.6666 22.5417 14.6333 21.4167 15.1416 21.0834C15.6416 20.7584 16.9833 19.8334 17.1166 19.7417C17.2999 19.6167 17.1666 19.5167 17.0249 19.3084C16.9249 19.1667 16.8249 19.2667 16.8249 19.2667C16.2833 19.625 15.2916 20.375 15.1583 19.9C14.9999 19.425 16.0166 16.1667 16.5749 13.925C16.6666 13.3917 16.9166 12.225 15.9499 12.3084Z" fill="url(#paint1_linear_2002_45)"/>
<defs>
<filter id="filter0_i_2002_45" x="0" y="0" width="30" height="34" filterUnits="userSpaceOnUse" color-interpolation-filters="sRGB">
<feFlood flood-opacity="0" result="BackgroundImageFix"/>
<feBlend mode="normal" in="SourceGraphic" in2="BackgroundImageFix" result="shape"/>
<feColorMatrix in="SourceAlpha" type="matrix" values="0 0 0 0 0 0 0 0 0 0 0 0 0 0 0 0 0 0 127 0" result="hardAlpha"/>
<feOffset dy="4"/>
<feGaussianBlur stdDeviation="2"/>
<feComposite in2="hardAlpha" operator="arithmetic" k2="-1" k3="1"/>
<feColorMatrix type="matrix" values="0 0 0 0 1 0 0 0 0 1 0 0 0 0 1 0 0 0 0.17 0"/>
<feBlend mode="normal" in2="shape" result="effect1_innerShadow_2002_45"/>
</filter>
<linearGradient id="paint0_linear_2002_45" x1="15" y1="0" x2="15" y2="30" gradientUnits="userSpaceOnUse">
<stop stop-color="#4B4B4B"/>
<stop offset="0.505989" stop-color="#5F5F5F"/>
<stop offset="1" stop-color="#4B4B4B"/>
</linearGradient>
<linearGradient id="paint1_linear_2002_45" x1="14.8222" y1="8.33337" x2="14.8222" y2="21.6703" gradientUnits="userSpaceOnUse">
<stop stop-color="#FFBD4C"/>
<stop offset="1" stop-color="#D87B03"/>
</linearGradient>
</defs>
</svg>
