<svg width="38" height="38" viewBox="0 0 38 38" fill="none" xmlns="http://www.w3.org/2000/svg">
<g filter="url(#filter0_di_13_4)">
<rect x="4" width="30" height="30" rx="15" fill="url(#paint0_linear_13_4)"/>
</g>
<path fill-rule="evenodd" clip-rule="evenodd" d="M16.4588 12.9988C16.9629 12.5948 17.3439 12.0579 17.5588 11.4488V11.4463L19.275 13.1625C19.4528 13.3281 19.6878 13.4183 19.9307 13.414C20.1736 13.4097 20.4053 13.3113 20.5771 13.1395C20.7488 12.9678 20.8472 12.736 20.8515 12.4932C20.8558 12.2503 20.7656 12.0152 20.6 11.8375L20.0125 11.25H20.875C20.9734 11.25 21.07 11.2575 21.165 11.2725C21.6067 11.3416 22.0091 11.5663 22.2997 11.906C22.5904 12.2456 22.7501 12.678 22.75 13.125V15.3125C22.75 15.5611 22.8488 15.7996 23.0246 15.9754C23.2004 16.1512 23.4389 16.25 23.6875 16.25C23.9362 16.25 24.1746 16.1512 24.3505 15.9754C24.5263 15.7996 24.625 15.5611 24.625 15.3125V13.125C24.625 12.1304 24.23 11.1766 23.5267 10.4734C22.8234 9.77009 21.8696 9.375 20.875 9.375H20.0125L20.6 8.7875C20.7656 8.60978 20.8558 8.37472 20.8515 8.13185C20.8472 7.88897 20.7488 7.65724 20.5771 7.48547C20.4053 7.31371 20.1736 7.21532 19.9307 7.21103C19.6878 7.20675 19.4528 7.2969 19.275 7.4625L17.5588 9.17875C17.3228 8.50594 16.8837 7.92298 16.3022 7.51033C15.7208 7.09768 15.0255 6.87569 14.3125 6.875C13.4826 6.87474 12.6807 7.17471 12.0547 7.71954C11.4287 8.26437 11.0209 9.01728 10.9067 9.83927C10.7924 10.6613 10.9794 11.4968 11.4331 12.1917C11.8868 12.8866 12.5765 13.3939 13.375 13.62V16.38C12.5765 16.6063 11.8867 17.1138 11.433 17.8088C10.9793 18.5039 10.7923 19.3396 10.9065 20.1617C11.0207 20.9839 11.4285 21.7369 12.0545 22.282C12.6805 22.827 13.4825 23.1272 14.3125 23.1272C15.1426 23.1272 15.9446 22.827 16.5706 22.282C17.1966 21.7369 17.6043 20.9839 17.7186 20.1617C17.8328 19.3396 17.6458 18.5039 17.1921 17.8088C16.7384 17.1138 16.0486 16.6063 15.25 16.38V13.62C15.6963 13.495 16.1063 13.28 16.4588 12.9988ZM21.5375 18.0863C21.451 17.9968 21.3475 17.9254 21.2331 17.8763C21.1187 17.8272 20.9957 17.8014 20.8712 17.8004C20.7467 17.7994 20.6233 17.8232 20.5081 17.8703C20.3929 17.9175 20.2883 17.9872 20.2003 18.0753C20.1123 18.1633 20.0427 18.268 19.9957 18.3833C19.9486 18.4985 19.9249 18.622 19.9261 18.7465C19.9272 18.8709 19.9531 18.9939 20.0023 19.1083C20.0515 19.2226 20.123 19.3261 20.2125 19.4125L22.7125 21.9125C22.8075 22.0074 22.9217 22.0809 23.0475 22.1278C23.1733 22.1748 23.3077 22.1942 23.4416 22.1847C23.5755 22.1752 23.7059 22.1371 23.8238 22.0729C23.9417 22.0086 24.0444 21.9199 24.125 21.8125L27.875 16.8125C28.0242 16.6136 28.0883 16.3636 28.0531 16.1174C28.018 15.8713 27.8864 15.6492 27.6875 15.5C27.4886 15.3508 27.2386 15.2868 26.9925 15.3219C26.7463 15.3571 26.5242 15.4886 26.375 15.6875L23.2738 19.8225L21.5375 18.0863ZM12.985 18.8637C12.8315 19.1111 12.7501 19.3964 12.75 19.6875C12.75 20.0644 12.8861 20.4287 13.1335 20.7131C13.3808 20.9976 13.7226 21.183 14.096 21.2353C14.4693 21.2875 14.8489 21.2031 15.1648 20.9975C15.4807 20.7919 15.7117 20.479 15.8151 20.1165C15.9185 19.754 15.8874 19.3664 15.7275 19.025C15.5676 18.6837 15.2897 18.4117 14.945 18.2591C14.6003 18.1065 14.2121 18.0837 13.8519 18.1948C13.4917 18.3059 13.1838 18.5435 12.985 18.8637ZM14.985 8.90125C15.3592 9.07961 15.6471 9.39928 15.7855 9.78994C15.924 10.1806 15.9015 10.6103 15.7232 10.9844C15.5448 11.3585 15.2251 11.6464 14.8345 11.7849C14.4438 11.9233 14.0142 11.9009 13.64 11.7225C13.2659 11.5441 12.978 11.2245 12.8395 10.8338C12.7011 10.4431 12.7236 10.0135 12.9019 9.63938C13.0803 9.26525 13.3999 8.97731 13.7906 8.83888C14.1813 8.70046 14.6109 8.72289 14.985 8.90125Z" fill="url(#paint1_linear_13_4)"/>
<defs>
<filter id="filter0_di_13_4" x="0" y="0" width="38" height="38" filterUnits="userSpaceOnUse" color-interpolation-filters="sRGB">
<feFlood flood-opacity="0" result="BackgroundImageFix"/>
<feColorMatrix in="SourceAlpha" type="matrix" values="0 0 0 0 0 0 0 0 0 0 0 0 0 0 0 0 0 0 127 0" result="hardAlpha"/>
<feOffset dy="4"/>
<feGaussianBlur stdDeviation="2"/>
<feComposite in2="hardAlpha" operator="out"/>
<feColorMatrix type="matrix" values="0 0 0 0 0 0 0 0 0 0 0 0 0 0 0 0 0 0 0.25 0"/>
<feBlend mode="normal" in2="BackgroundImageFix" result="effect1_dropShadow_13_4"/>
<feBlend mode="normal" in="SourceGraphic" in2="effect1_dropShadow_13_4" result="shape"/>
<feColorMatrix in="SourceAlpha" type="matrix" values="0 0 0 0 0 0 0 0 0 0 0 0 0 0 0 0 0 0 127 0" result="hardAlpha"/>
<feOffset dy="4"/>
<feGaussianBlur stdDeviation="2"/>
<feComposite in2="hardAlpha" operator="arithmetic" k2="-1" k3="1"/>
<feColorMatrix type="matrix" values="0 0 0 0 1 0 0 0 0 1 0 0 0 0 1 0 0 0 0.17 0"/>
<feBlend mode="normal" in2="shape" result="effect2_innerShadow_13_4"/>
</filter>
<linearGradient id="paint0_linear_13_4" x1="19" y1="0" x2="19" y2="30" gradientUnits="userSpaceOnUse">
<stop stop-color="#4B4B4B"/>
<stop offset="0.505989" stop-color="#5F5F5F"/>
<stop offset="1" stop-color="#4B4B4B"/>
</linearGradient>
<linearGradient id="paint1_linear_13_4" x1="19.4682" y1="6.875" x2="19.4682" y2="23.1272" gradientUnits="userSpaceOnUse">
<stop stop-color="#FFBD4C"/>
<stop offset="1" stop-color="#D87B03"/>
</linearGradient>
</defs>
</svg>
