<svg width="30" height="30" viewBox="0 0 30 30" fill="none" xmlns="http://www.w3.org/2000/svg">
<g filter="url(#filter0_i_2002_10)">
<rect width="30" height="30" rx="15" fill="url(#paint0_linear_2002_10)"/>
</g>
<path fill-rule="evenodd" clip-rule="evenodd" d="M12.4588 12.9988C12.9629 12.5948 13.3439 12.0579 13.5588 11.4488V11.4463L15.275 13.1625C15.4528 13.3281 15.6878 13.4183 15.9307 13.414C16.1736 13.4097 16.4053 13.3113 16.5771 13.1395C16.7488 12.9678 16.8472 12.736 16.8515 12.4932C16.8558 12.2503 16.7656 12.0152 16.6 11.8375L16.0125 11.25H16.875C16.9734 11.25 17.07 11.2575 17.165 11.2725C17.6067 11.3416 18.0091 11.5663 18.2997 11.906C18.5904 12.2456 18.7501 12.678 18.75 13.125V15.3125C18.75 15.5611 18.8488 15.7996 19.0246 15.9754C19.2004 16.1512 19.4389 16.25 19.6875 16.25C19.9362 16.25 20.1746 16.1512 20.3505 15.9754C20.5263 15.7996 20.625 15.5611 20.625 15.3125V13.125C20.625 12.1304 20.23 11.1766 19.5267 10.4733C18.8234 9.77009 17.8696 9.375 16.875 9.375H16.0125L16.6 8.7875C16.7656 8.60978 16.8558 8.37472 16.8515 8.13185C16.8472 7.88897 16.7488 7.65724 16.5771 7.48547C16.4053 7.31371 16.1736 7.21532 15.9307 7.21103C15.6878 7.20675 15.4528 7.2969 15.275 7.4625L13.5588 9.17875C13.3228 8.50594 12.8837 7.92298 12.3022 7.51033C11.7208 7.09768 11.0255 6.87569 10.3125 6.875C9.48265 6.87474 8.68068 7.17471 8.05468 7.71954C7.42868 8.26437 7.02092 9.01728 6.90667 9.83927C6.79242 10.6613 6.9794 11.4968 7.43308 12.1917C7.88677 12.8866 8.57653 13.3939 9.37504 13.62V16.38C8.57645 16.6063 7.88666 17.1138 7.43296 17.8088C6.97926 18.5039 6.79228 19.3396 6.90651 20.1617C7.02074 20.9839 7.42848 21.7369 8.05449 22.282C8.68049 22.827 9.48251 23.1272 10.3125 23.1272C11.1426 23.1272 11.9446 22.827 12.5706 22.282C13.1966 21.7369 13.6043 20.9839 13.7186 20.1617C13.8328 19.3396 13.6458 18.5039 13.1921 17.8088C12.7384 17.1138 12.0486 16.6063 11.25 16.38V13.62C11.6963 13.495 12.1063 13.28 12.4588 12.9988ZM17.5375 18.0862C17.451 17.9968 17.3475 17.9254 17.2331 17.8763C17.1187 17.8272 16.9957 17.8014 16.8712 17.8004C16.7467 17.7994 16.6233 17.8232 16.5081 17.8703C16.3929 17.9175 16.2883 17.9872 16.2003 18.0753C16.1123 18.1633 16.0427 18.268 15.9957 18.3833C15.9486 18.4985 15.9249 18.622 15.9261 18.7464C15.9272 18.8709 15.9531 18.9939 16.0023 19.1083C16.0515 19.2226 16.123 19.3261 16.2125 19.4125L18.7125 21.9125C18.8075 22.0074 18.9217 22.0809 19.0475 22.1278C19.1733 22.1748 19.3077 22.1942 19.4416 22.1847C19.5755 22.1752 19.7059 22.1371 19.8238 22.0729C19.9417 22.0086 20.0444 21.9199 20.125 21.8125L23.875 16.8125C24.0242 16.6136 24.0883 16.3636 24.0531 16.1174C24.018 15.8713 23.8865 15.6492 23.6875 15.5C23.4886 15.3508 23.2386 15.2868 22.9925 15.3219C22.7463 15.3571 22.5242 15.4886 22.375 15.6875L19.2738 19.8225L17.5375 18.0862ZM8.98504 18.8637C8.8315 19.1111 8.7501 19.3964 8.75004 19.6875C8.74995 20.0644 8.88613 20.4287 9.13348 20.7131C9.38082 20.9976 9.72265 21.183 10.096 21.2353C10.4693 21.2875 10.8489 21.2031 11.1648 20.9975C11.4807 20.7919 11.7117 20.479 11.8151 20.1165C11.9185 19.754 11.8874 19.3664 11.7275 19.025C11.5676 18.6837 11.2897 18.4117 10.945 18.2591C10.6003 18.1065 10.2121 18.0837 9.85191 18.1948C9.49172 18.3059 9.18385 18.5435 8.98504 18.8637ZM10.985 8.90125C11.3592 9.07961 11.6471 9.39928 11.7855 9.78994C11.924 10.1806 11.9015 10.6103 11.7232 10.9844C11.5448 11.3585 11.2251 11.6464 10.8345 11.7849C10.4438 11.9233 10.0142 11.9009 9.64004 11.7225C9.26592 11.5441 8.97797 11.2245 8.83955 10.8338C8.70112 10.4431 8.72355 10.0135 8.90191 9.63938C9.08027 9.26525 9.39994 8.97731 9.7906 8.83888C10.1813 8.70046 10.6109 8.72289 10.985 8.90125Z" fill="url(#paint1_linear_2002_10)"/>
<defs>
<filter id="filter0_i_2002_10" x="0" y="0" width="30" height="34" filterUnits="userSpaceOnUse" color-interpolation-filters="sRGB">
<feFlood flood-opacity="0" result="BackgroundImageFix"/>
<feBlend mode="normal" in="SourceGraphic" in2="BackgroundImageFix" result="shape"/>
<feColorMatrix in="SourceAlpha" type="matrix" values="0 0 0 0 0 0 0 0 0 0 0 0 0 0 0 0 0 0 127 0" result="hardAlpha"/>
<feOffset dy="4"/>
<feGaussianBlur stdDeviation="2"/>
<feComposite in2="hardAlpha" operator="arithmetic" k2="-1" k3="1"/>
<feColorMatrix type="matrix" values="0 0 0 0 1 0 0 0 0 1 0 0 0 0 1 0 0 0 0.17 0"/>
<feBlend mode="normal" in2="shape" result="effect1_innerShadow_2002_10"/>
</filter>
<linearGradient id="paint0_linear_2002_10" x1="15" y1="0" x2="15" y2="30" gradientUnits="userSpaceOnUse">
<stop stop-color="#4B4B4B"/>
<stop offset="0.505989" stop-color="#5F5F5F"/>
<stop offset="1" stop-color="#4B4B4B"/>
</linearGradient>
<linearGradient id="paint1_linear_2002_10" x1="15.4682" y1="6.875" x2="15.4682" y2="23.1272" gradientUnits="userSpaceOnUse">
<stop stop-color="#FFBD4C"/>
<stop offset="1" stop-color="#D87B03"/>
</linearGradient>
</defs>
</svg>
