<svg width="30" height="30" viewBox="0 0 30 30" fill="none" xmlns="http://www.w3.org/2000/svg">
<g filter="url(#filter0_i_2002_35)">
<rect width="30" height="30" rx="15" fill="url(#paint0_linear_2002_35)"/>
</g>
<path d="M9.99996 16.6666H16.6666V15H9.99996V16.6666ZM9.99996 14.1666H20V12.5H9.99996V14.1666ZM9.99996 11.6666H20V9.99996H9.99996V11.6666ZM6.66663 23.3333V8.33329C6.66663 7.87496 6.82996 7.48274 7.15663 7.15663C7.48329 6.83051 7.87551 6.66718 8.33329 6.66663H21.6666C22.125 6.66663 22.5175 6.82996 22.8441 7.15663C23.1708 7.48329 23.3338 7.87551 23.3333 8.33329V18.3333C23.3333 18.7916 23.1702 19.1841 22.8441 19.5108C22.518 19.8375 22.1255 20.0005 21.6666 20H9.99996L6.66663 23.3333ZM9.29163 18.3333H21.6666V8.33329H8.33329V19.2708L9.29163 18.3333Z" fill="url(#paint1_linear_2002_35)"/>
<defs>
<filter id="filter0_i_2002_35" x="0" y="0" width="30" height="34" filterUnits="userSpaceOnUse" color-interpolation-filters="sRGB">
<feFlood flood-opacity="0" result="BackgroundImageFix"/>
<feBlend mode="normal" in="SourceGraphic" in2="BackgroundImageFix" result="shape"/>
<feColorMatrix in="SourceAlpha" type="matrix" values="0 0 0 0 0 0 0 0 0 0 0 0 0 0 0 0 0 0 127 0" result="hardAlpha"/>
<feOffset dy="4"/>
<feGaussianBlur stdDeviation="2"/>
<feComposite in2="hardAlpha" operator="arithmetic" k2="-1" k3="1"/>
<feColorMatrix type="matrix" values="0 0 0 0 1 0 0 0 0 1 0 0 0 0 1 0 0 0 0.17 0"/>
<feBlend mode="normal" in2="shape" result="effect1_innerShadow_2002_35"/>
</filter>
<linearGradient id="paint0_linear_2002_35" x1="15" y1="0" x2="15" y2="30" gradientUnits="userSpaceOnUse">
<stop stop-color="#4B4B4B"/>
<stop offset="0.505989" stop-color="#5F5F5F"/>
<stop offset="1" stop-color="#4B4B4B"/>
</linearGradient>
<linearGradient id="paint1_linear_2002_35" x1="15" y1="6.66663" x2="15" y2="23.3333" gradientUnits="userSpaceOnUse">
<stop stop-color="#FFBD4C"/>
<stop offset="1" stop-color="#D87B03"/>
</linearGradient>
</defs>
</svg>
