<svg width="30" height="30" viewBox="0 0 30 30" fill="none" xmlns="http://www.w3.org/2000/svg">
<g filter="url(#filter0_i_2002_40)">
<rect width="30" height="30" rx="15" fill="url(#paint0_linear_2002_40)"/>
</g>
<path d="M15 16.25L20 12.9166L15 9.58329V16.25ZM15.5833 20.8333H20.25C20.1528 21.1944 19.9861 21.4861 19.75 21.7083C19.5139 21.9305 19.2083 22.0694 18.8333 22.125L9.75001 23.2291C9.29168 23.2986 8.87835 23.1911 8.51001 22.9066C8.14168 22.6222 7.93001 22.2505 7.87501 21.7916L6.77085 12.6875C6.71529 12.2291 6.8264 11.8194 7.10418 11.4583C7.38196 11.0972 7.75001 10.8888 8.20835 10.8333L9.16668 10.7083V12.375L8.41668 12.4791L9.54168 21.5833L15.5833 20.8333ZM12.5 19.1666C12.0417 19.1666 11.6495 19.0036 11.3233 18.6775C10.9972 18.3513 10.8339 17.9588 10.8333 17.5V8.33329C10.8333 7.87496 10.9967 7.48274 11.3233 7.15663C11.65 6.83051 12.0422 6.66718 12.5 6.66663H21.6667C22.125 6.66663 22.5175 6.82996 22.8442 7.15663C23.1708 7.48329 23.3339 7.87551 23.3333 8.33329V17.5C23.3333 17.9583 23.1703 18.3508 22.8442 18.6775C22.5181 19.0041 22.1256 19.1672 21.6667 19.1666H12.5ZM12.5 17.5H21.6667V8.33329H12.5V17.5Z" fill="url(#paint1_linear_2002_40)"/>
<defs>
<filter id="filter0_i_2002_40" x="0" y="0" width="30" height="34" filterUnits="userSpaceOnUse" color-interpolation-filters="sRGB">
<feFlood flood-opacity="0" result="BackgroundImageFix"/>
<feBlend mode="normal" in="SourceGraphic" in2="BackgroundImageFix" result="shape"/>
<feColorMatrix in="SourceAlpha" type="matrix" values="0 0 0 0 0 0 0 0 0 0 0 0 0 0 0 0 0 0 127 0" result="hardAlpha"/>
<feOffset dy="4"/>
<feGaussianBlur stdDeviation="2"/>
<feComposite in2="hardAlpha" operator="arithmetic" k2="-1" k3="1"/>
<feColorMatrix type="matrix" values="0 0 0 0 1 0 0 0 0 1 0 0 0 0 1 0 0 0 0.17 0"/>
<feBlend mode="normal" in2="shape" result="effect1_innerShadow_2002_40"/>
</filter>
<linearGradient id="paint0_linear_2002_40" x1="15" y1="0" x2="15" y2="30" gradientUnits="userSpaceOnUse">
<stop stop-color="#4B4B4B"/>
<stop offset="0.505989" stop-color="#5F5F5F"/>
<stop offset="1" stop-color="#4B4B4B"/>
</linearGradient>
<linearGradient id="paint1_linear_2002_40" x1="15.0452" y1="6.66663" x2="15.0452" y2="23.2496" gradientUnits="userSpaceOnUse">
<stop stop-color="#FFBD4C"/>
<stop offset="1" stop-color="#D87B03"/>
</linearGradient>
</defs>
</svg>
