<svg width="30" height="30" viewBox="0 0 30 30" fill="none" xmlns="http://www.w3.org/2000/svg">
<g filter="url(#filter0_i_2002_23)">
<rect width="30" height="30" rx="15" fill="url(#paint0_linear_2002_23)"/>
</g>
<g clip-path="url(#clip0_2002_23)">
<path d="M22.5 19.1667V11.6667H10.8334V19.1667H22.5ZM22.5 7.50004C22.9421 7.50004 23.366 7.67564 23.6785 7.9882C23.9911 8.30076 24.1667 8.72468 24.1667 9.16671V19.1667C24.1667 19.6087 23.9911 20.0327 23.6785 20.3452C23.366 20.6578 22.9421 20.8334 22.5 20.8334H10.8334C10.3913 20.8334 9.96742 20.6578 9.65486 20.3452C9.3423 20.0327 9.16671 19.6087 9.16671 19.1667V9.16671C9.16671 8.72468 9.3423 8.30076 9.65486 7.9882C9.96742 7.67564 10.3913 7.50004 10.8334 7.50004H11.6667V5.83337H13.3334V7.50004H20V5.83337H21.6667V7.50004H22.5ZM19.6084 14.2167L15.9084 17.9167L13.675 15.6834L14.5584 14.8L15.9084 16.15L18.725 13.3334L19.6084 14.2167ZM7.50004 22.5H19.1667V24.1667H7.50004C7.05801 24.1667 6.63409 23.9911 6.32153 23.6785C6.00897 23.366 5.83337 22.9421 5.83337 22.5V12.5H7.50004V22.5Z" fill="url(#paint1_linear_2002_23)"/>
</g>
<defs>
<filter id="filter0_i_2002_23" x="0" y="0" width="30" height="34" filterUnits="userSpaceOnUse" color-interpolation-filters="sRGB">
<feFlood flood-opacity="0" result="BackgroundImageFix"/>
<feBlend mode="normal" in="SourceGraphic" in2="BackgroundImageFix" result="shape"/>
<feColorMatrix in="SourceAlpha" type="matrix" values="0 0 0 0 0 0 0 0 0 0 0 0 0 0 0 0 0 0 127 0" result="hardAlpha"/>
<feOffset dy="4"/>
<feGaussianBlur stdDeviation="2"/>
<feComposite in2="hardAlpha" operator="arithmetic" k2="-1" k3="1"/>
<feColorMatrix type="matrix" values="0 0 0 0 1 0 0 0 0 1 0 0 0 0 1 0 0 0 0.17 0"/>
<feBlend mode="normal" in2="shape" result="effect1_innerShadow_2002_23"/>
</filter>
<linearGradient id="paint0_linear_2002_23" x1="15" y1="0" x2="15" y2="30" gradientUnits="userSpaceOnUse">
<stop stop-color="#4B4B4B"/>
<stop offset="0.505989" stop-color="#5F5F5F"/>
<stop offset="1" stop-color="#4B4B4B"/>
</linearGradient>
<linearGradient id="paint1_linear_2002_23" x1="15" y1="5.83337" x2="15" y2="24.1667" gradientUnits="userSpaceOnUse">
<stop stop-color="#FFBD4C"/>
<stop offset="1" stop-color="#D87B03"/>
</linearGradient>
<clipPath id="clip0_2002_23">
<rect width="20" height="20" fill="white" transform="translate(5 5)"/>
</clipPath>
</defs>
</svg>
