<svg width="38" height="38" viewBox="0 0 38 38" fill="none" xmlns="http://www.w3.org/2000/svg">
<g filter="url(#filter0_di_13_21)">
<rect x="4" width="30" height="30" rx="15" fill="url(#paint0_linear_13_21)"/>
</g>
<g clip-path="url(#clip0_13_21)">
<path d="M26.5 19.1666V11.6666H14.8334V19.1666H26.5ZM26.5 7.49998C26.9421 7.49998 27.366 7.67557 27.6786 7.98813C27.9911 8.3007 28.1667 8.72462 28.1667 9.16665V19.1666C28.1667 19.6087 27.9911 20.0326 27.6786 20.3452C27.366 20.6577 26.9421 20.8333 26.5 20.8333H14.8334C14.3913 20.8333 13.9674 20.6577 13.6549 20.3452C13.3423 20.0326 13.1667 19.6087 13.1667 19.1666V9.16665C13.1667 8.72462 13.3423 8.3007 13.6549 7.98813C13.9674 7.67557 14.3913 7.49998 14.8334 7.49998H15.6667V5.83331H17.3334V7.49998H24V5.83331H25.6667V7.49998H26.5ZM23.6084 14.2166L19.9084 17.9166L17.675 15.6833L18.5584 14.8L19.9084 16.15L22.725 13.3333L23.6084 14.2166ZM11.5 22.5H23.1667V24.1666H11.5C11.058 24.1666 10.6341 23.991 10.3215 23.6785C10.009 23.3659 9.83337 22.942 9.83337 22.5V12.5H11.5V22.5Z" fill="url(#paint1_linear_13_21)"/>
</g>
<defs>
<filter id="filter0_di_13_21" x="0" y="0" width="38" height="38" filterUnits="userSpaceOnUse" color-interpolation-filters="sRGB">
<feFlood flood-opacity="0" result="BackgroundImageFix"/>
<feColorMatrix in="SourceAlpha" type="matrix" values="0 0 0 0 0 0 0 0 0 0 0 0 0 0 0 0 0 0 127 0" result="hardAlpha"/>
<feOffset dy="4"/>
<feGaussianBlur stdDeviation="2"/>
<feComposite in2="hardAlpha" operator="out"/>
<feColorMatrix type="matrix" values="0 0 0 0 0 0 0 0 0 0 0 0 0 0 0 0 0 0 0.25 0"/>
<feBlend mode="normal" in2="BackgroundImageFix" result="effect1_dropShadow_13_21"/>
<feBlend mode="normal" in="SourceGraphic" in2="effect1_dropShadow_13_21" result="shape"/>
<feColorMatrix in="SourceAlpha" type="matrix" values="0 0 0 0 0 0 0 0 0 0 0 0 0 0 0 0 0 0 127 0" result="hardAlpha"/>
<feOffset dy="4"/>
<feGaussianBlur stdDeviation="2"/>
<feComposite in2="hardAlpha" operator="arithmetic" k2="-1" k3="1"/>
<feColorMatrix type="matrix" values="0 0 0 0 1 0 0 0 0 1 0 0 0 0 1 0 0 0 0.17 0"/>
<feBlend mode="normal" in2="shape" result="effect2_innerShadow_13_21"/>
</filter>
<linearGradient id="paint0_linear_13_21" x1="19" y1="0" x2="19" y2="30" gradientUnits="userSpaceOnUse">
<stop stop-color="#4B4B4B"/>
<stop offset="0.505989" stop-color="#5F5F5F"/>
<stop offset="1" stop-color="#4B4B4B"/>
</linearGradient>
<linearGradient id="paint1_linear_13_21" x1="19" y1="5.83331" x2="19" y2="24.1666" gradientUnits="userSpaceOnUse">
<stop stop-color="#FFBD4C"/>
<stop offset="1" stop-color="#D87B03"/>
</linearGradient>
<clipPath id="clip0_13_21">
<rect width="20" height="20" fill="white" transform="translate(9 5)"/>
</clipPath>
</defs>
</svg>
