<svg width="51" height="51" viewBox="0 0 51 51" fill="none" xmlns="http://www.w3.org/2000/svg">
<rect width="51" height="51" rx="25.5" fill="url(#paint0_linear_2001_211)"/>
<g clip-path="url(#clip0_2001_211)">
<path d="M29.3333 15.8333H32.9583C33.5993 15.8333 34.214 16.0879 34.6672 16.5411C35.1204 16.9943 35.375 17.609 35.375 18.25V19.4583M29.3333 35.1666H32.9583C33.5993 35.1666 34.214 34.912 34.6672 34.4588C35.1204 34.0056 35.375 33.3909 35.375 32.75V31.5416M29.3345 25.5H35.3762M35.3762 25.5L32.9595 23.0833M35.3762 25.5L32.9595 27.9166M15.3469 34.4755L22.5969 36.6505C22.9578 36.7588 23.339 36.7812 23.7101 36.716C24.0813 36.6507 24.432 36.4996 24.7343 36.2747C25.0366 36.0497 25.2821 35.7572 25.4513 35.4205C25.6204 35.0837 25.7084 34.7121 25.7083 34.3353V16.6646C25.7084 16.2878 25.6204 15.9162 25.4513 15.5795C25.2821 15.2427 25.0366 14.9502 24.7343 14.7253C24.432 14.5003 24.0813 14.3492 23.7101 14.2839C23.339 14.2187 22.9578 14.2411 22.5969 14.3495L15.3469 16.5245C14.8491 16.6739 14.4127 16.9798 14.1025 17.3969C13.7923 17.8139 13.6249 18.3199 13.625 18.8396V32.1603C13.6249 32.6801 13.7923 33.186 14.1025 33.603C14.4127 34.0201 14.8491 34.326 15.3469 34.4755Z" stroke="url(#paint1_linear_2001_211)" stroke-width="3" stroke-linecap="round" stroke-linejoin="round"/>
</g>
<defs>
<linearGradient id="paint0_linear_2001_211" x1="25.5" y1="0" x2="25.5" y2="51" gradientUnits="userSpaceOnUse">
<stop stop-color="#4B4B4B"/>
<stop offset="0.505989" stop-color="#5F5F5F"/>
<stop offset="1" stop-color="#4B4B4B"/>
</linearGradient>
<linearGradient id="paint1_linear_2001_211" x1="24.5006" y1="14.2474" x2="24.5006" y2="36.7525" gradientUnits="userSpaceOnUse">
<stop stop-color="#FFBD4C"/>
<stop offset="1" stop-color="#D87B03"/>
</linearGradient>
<clipPath id="clip0_2001_211">
<rect width="29" height="29" fill="white" transform="translate(11 11)"/>
</clipPath>
</defs>
</svg>
