<svg width="31" height="30" viewBox="0 0 31 30" fill="none" xmlns="http://www.w3.org/2000/svg">
<path d="M14.5625 2.5C9.28875 2.505 6.56125 2.6 4.83 4.33C3.1 6.0625 3.005 8.78875 3 14.0625H9.1425C8.69346 13.5012 8.37071 12.8498 8.19625 12.1525C7.525 9.4625 9.9625 7.025 12.6525 7.69625C13.3675 7.875 14.015 8.20375 14.5625 8.6425V2.5ZM3 15.9375C3.005 21.21 3.1 23.9375 4.83 25.6688C6.5625 27.4 9.28875 27.4937 14.5625 27.5V17.6538C14.0695 18.6406 13.3112 19.4705 12.3729 20.0505C11.4345 20.6306 10.3531 20.9377 9.25 20.9375C9.00136 20.9375 8.7629 20.8387 8.58709 20.6629C8.41127 20.4871 8.3125 20.2486 8.3125 20C8.3125 19.7514 8.41127 19.5129 8.58709 19.3371C8.7629 19.1613 9.00136 19.0625 9.25 19.0625C10.1646 19.0627 11.0525 18.7543 11.77 18.1872C12.4875 17.62 12.9927 16.8274 13.2038 15.9375H3ZM16.4375 27.5C21.71 27.4937 24.4375 27.4 26.1688 25.6688C27.9 23.9387 27.9937 21.21 28 15.9375H17.7962C18.0073 16.8274 18.5125 17.62 19.23 18.1872C19.9475 18.7543 20.8354 19.0627 21.75 19.0625C21.9986 19.0625 22.2371 19.1613 22.4129 19.3371C22.5887 19.5129 22.6875 19.7514 22.6875 20C22.6875 20.2486 22.5887 20.4871 22.4129 20.6629C22.2371 20.8387 21.9986 20.9375 21.75 20.9375C20.6469 20.9377 19.5655 20.6306 18.6271 20.0505C17.6888 19.4705 16.9305 18.6406 16.4375 17.6538V27.5ZM28 14.0625C27.9937 8.78875 27.9 6.06125 26.1688 4.33C24.4387 2.6 21.71 2.505 16.4375 2.5V8.6425C16.9984 8.19362 17.6494 7.87088 18.3463 7.69625C21.0375 7.02375 23.4762 9.46125 22.8025 12.1525C22.6284 12.8497 22.3061 13.5011 21.8575 14.0625H28Z" fill="white"/>
<path d="M12.1975 9.51626C12.8725 9.68551 13.4717 10.0752 13.9002 10.6237C14.3286 11.1721 14.5617 11.8478 14.5625 12.5438V14.0625H13.0437C12.3478 14.0617 11.6721 13.8286 11.1236 13.4002C10.5752 12.9718 10.1855 12.3725 10.0162 11.6975C9.9413 11.3962 9.94556 11.0807 10.0286 10.7815C10.1117 10.4824 10.2707 10.2098 10.4902 9.99025C10.7098 9.77071 10.9823 9.61169 11.2815 9.52864C11.5806 9.44559 11.8962 9.44132 12.1975 9.51626ZM16.4375 12.5438V14.0625H17.9562C19.3875 14.0625 20.6362 13.0875 20.9837 11.6975C21.0588 11.3961 21.0545 11.0804 20.9714 10.7811C20.8883 10.4818 20.7292 10.2091 20.5095 9.98955C20.2898 9.76998 20.017 9.61099 19.7176 9.52806C19.4183 9.44512 19.1026 9.44106 18.8012 9.51626C18.1264 9.68575 17.5275 10.0756 17.0993 10.624C16.6711 11.1724 16.4382 11.848 16.4375 12.5438Z" fill="white"/>
</svg>
