<svg width="22" height="22" viewBox="0 0 22 22" fill="none" xmlns="http://www.w3.org/2000/svg">
<path d="M11 0.166687C16.9832 0.166687 21.8333 5.01677 21.8333 11C21.8333 16.9833 16.9832 21.8334 11 21.8334C5.01671 21.8334 0.166626 16.9833 0.166626 11C0.166626 5.01677 5.01671 0.166687 11 0.166687ZM11 14.25C10.7126 14.25 10.4371 14.3642 10.2339 14.5673C10.0308 14.7705 9.91663 15.046 9.91663 15.3334C9.91663 15.6207 10.0308 15.8962 10.2339 16.0994C10.4371 16.3026 10.7126 16.4167 11 16.4167C11.2873 16.4167 11.5628 16.3026 11.766 16.0994C11.9692 15.8962 12.0833 15.6207 12.0833 15.3334C12.0833 15.046 11.9692 14.7705 11.766 14.5673C11.5628 14.3642 11.2873 14.25 11 14.25ZM11 4.50002C10.7346 4.50006 10.4785 4.59747 10.2802 4.7738C10.0819 4.95012 9.95525 5.19308 9.92421 5.4566L9.91663 5.58335V12.0834C9.91693 12.3595 10.0227 12.6251 10.2122 12.8258C10.4018 13.0266 10.6608 13.1474 10.9365 13.1636C11.2121 13.1798 11.4835 13.0901 11.6953 12.9129C11.907 12.7357 12.0431 12.4843 12.0757 12.2101L12.0833 12.0834V5.58335C12.0833 5.29604 11.9692 5.02049 11.766 4.81732C11.5628 4.61416 11.2873 4.50002 11 4.50002Z" fill="url(#paint0_linear_3_224)"/>
<defs>
<linearGradient id="paint0_linear_3_224" x1="11" y1="0.166687" x2="11" y2="21.8334" gradientUnits="userSpaceOnUse">
<stop stop-color="#FFBD4C"/>
<stop offset="1" stop-color="#D87B03"/>
</linearGradient>
</defs>
</svg>
