<svg width="31" height="31" viewBox="0 0 31 31" fill="none" xmlns="http://www.w3.org/2000/svg">
<path fill-rule="evenodd" clip-rule="evenodd" d="M22.8046 30.9956C20.5688 30.9133 14.2325 30.0378 7.59659 23.4048C0.962227 16.7703 0.088099 10.4368 0.00425729 8.19997C-0.119953 4.79111 2.49156 1.48004 5.50831 0.186966C5.87159 0.0301318 6.26941 -0.0295798 6.66274 0.0136907C7.05606 0.0569612 7.43138 0.201727 7.75185 0.433783C10.2361 2.24377 11.9502 4.98204 13.422 7.13509C13.7459 7.60812 13.8844 8.18375 13.8111 8.75228C13.7378 9.32081 13.4578 9.84251 13.0246 10.218L9.9954 12.4673C9.84905 12.5729 9.74603 12.7281 9.70549 12.904C9.66494 13.0798 9.68961 13.2644 9.77492 13.4235C10.4612 14.67 11.6815 16.5265 13.0789 17.9236C14.4778 19.3207 16.4217 20.6215 17.7554 21.3853C17.9226 21.4791 18.1195 21.5054 18.3054 21.4586C18.4914 21.4118 18.6524 21.2956 18.7553 21.1338L20.7271 18.1332C21.0897 17.6517 21.6244 17.3292 22.2195 17.2331C22.8145 17.1371 23.4237 17.2749 23.9193 17.6178C26.1039 19.1298 28.6533 20.814 30.5195 23.203C30.7705 23.5257 30.9301 23.9099 30.9817 24.3155C31.0334 24.721 30.9751 25.1329 30.813 25.5082C29.5134 28.5398 26.225 31.1213 22.8046 30.9956Z" fill="#444444"/>
</svg>
