<svg width="30" height="30" viewBox="0 0 30 30" fill="none" xmlns="http://www.w3.org/2000/svg">
<g filter="url(#filter0_i_2002_17)">
<rect width="30" height="30" rx="15" fill="url(#paint0_linear_2002_17)"/>
</g>
<path fill-rule="evenodd" clip-rule="evenodd" d="M18.6363 12.2726C18.6363 13.237 18.2531 14.1619 17.5712 14.8439C16.8892 15.5258 15.9643 15.909 14.9999 15.909C14.0355 15.909 13.1105 15.5258 12.4286 14.8439C11.7466 14.1619 11.3635 13.237 11.3635 12.2726C11.3635 11.3082 11.7466 10.3832 12.4286 9.7013C13.1105 9.01935 14.0355 8.63623 14.9999 8.63623C15.9643 8.63623 16.8892 9.01935 17.5712 9.7013C18.2531 10.3832 18.6363 11.3082 18.6363 12.2726ZM16.8181 12.2726C16.8181 12.7548 16.6265 13.2173 16.2855 13.5582C15.9446 13.8992 15.4821 14.0908 14.9999 14.0908C14.5177 14.0908 14.0552 13.8992 13.7142 13.5582C13.3733 13.2173 13.1817 12.7548 13.1817 12.2726C13.1817 11.7904 13.3733 11.3279 13.7142 10.9869C14.0552 10.646 14.5177 10.4544 14.9999 10.4544C15.4821 10.4544 15.9446 10.646 16.2855 10.9869C16.6265 11.3279 16.8181 11.7904 16.8181 12.2726Z" fill="url(#paint1_linear_2002_17)"/>
<path fill-rule="evenodd" clip-rule="evenodd" d="M15 5C9.47727 5 5 9.47727 5 15C5 20.5227 9.47727 25 15 25C20.5227 25 25 20.5227 25 15C25 9.47727 20.5227 5 15 5ZM6.81818 15C6.81818 16.9 7.46636 18.6491 8.55273 20.0382C9.31566 19.0363 10.2999 18.2243 11.4286 17.6657C12.5572 17.1072 13.7998 16.8171 15.0591 16.8182C16.3021 16.817 17.529 17.0996 18.6463 17.6443C19.7636 18.1891 20.7418 18.9817 21.5064 19.9618C22.294 18.9287 22.8244 17.7229 23.0535 16.4442C23.2827 15.1654 23.204 13.8505 22.8241 12.6082C22.4441 11.3658 21.7738 10.2319 20.8686 9.30003C19.9634 8.36821 18.8493 7.66533 17.6185 7.24955C16.3877 6.83378 15.0756 6.71707 13.7908 6.90907C12.5059 7.10107 11.2853 7.59627 10.2298 8.35369C9.17432 9.11111 8.31437 10.109 7.72112 11.2647C7.12786 12.4205 6.81835 13.7009 6.81818 15ZM15 23.1818C13.1218 23.1846 11.3002 22.5385 9.84364 21.3527C10.4299 20.5134 11.2103 19.8281 12.1184 19.3552C13.0264 18.8822 14.0353 18.6356 15.0591 18.6364C16.0701 18.6356 17.0668 18.876 17.9663 19.3377C18.8658 19.7993 19.6422 20.469 20.2309 21.2909C18.763 22.5152 16.9114 23.1845 15 23.1818Z" fill="url(#paint2_linear_2002_17)"/>
<defs>
<filter id="filter0_i_2002_17" x="0" y="0" width="30" height="34" filterUnits="userSpaceOnUse" color-interpolation-filters="sRGB">
<feFlood flood-opacity="0" result="BackgroundImageFix"/>
<feBlend mode="normal" in="SourceGraphic" in2="BackgroundImageFix" result="shape"/>
<feColorMatrix in="SourceAlpha" type="matrix" values="0 0 0 0 0 0 0 0 0 0 0 0 0 0 0 0 0 0 127 0" result="hardAlpha"/>
<feOffset dy="4"/>
<feGaussianBlur stdDeviation="2"/>
<feComposite in2="hardAlpha" operator="arithmetic" k2="-1" k3="1"/>
<feColorMatrix type="matrix" values="0 0 0 0 1 0 0 0 0 1 0 0 0 0 1 0 0 0 0.17 0"/>
<feBlend mode="normal" in2="shape" result="effect1_innerShadow_2002_17"/>
</filter>
<linearGradient id="paint0_linear_2002_17" x1="15" y1="0" x2="15" y2="30" gradientUnits="userSpaceOnUse">
<stop stop-color="#4B4B4B"/>
<stop offset="0.505989" stop-color="#5F5F5F"/>
<stop offset="1" stop-color="#4B4B4B"/>
</linearGradient>
<linearGradient id="paint1_linear_2002_17" x1="14.9999" y1="8.63623" x2="14.9999" y2="15.909" gradientUnits="userSpaceOnUse">
<stop stop-color="#FFBD4C"/>
<stop offset="1" stop-color="#D87B03"/>
</linearGradient>
<linearGradient id="paint2_linear_2002_17" x1="15" y1="5" x2="15" y2="25" gradientUnits="userSpaceOnUse">
<stop stop-color="#FFBD4C"/>
<stop offset="1" stop-color="#D87B03"/>
</linearGradient>
</defs>
</svg>
