<svg width="38" height="38" viewBox="0 0 38 38" fill="none" xmlns="http://www.w3.org/2000/svg">
<g filter="url(#filter0_di_13_12)">
<rect x="4" width="30" height="30" rx="15" fill="url(#paint0_linear_13_12)"/>
</g>
<path fill-rule="evenodd" clip-rule="evenodd" d="M22.6363 12.2727C22.6363 13.2371 22.2531 14.162 21.5712 14.844C20.8892 15.5259 19.9643 15.909 18.9999 15.909C18.0355 15.909 17.1105 15.5259 16.4286 14.844C15.7466 14.162 15.3635 13.2371 15.3635 12.2727C15.3635 11.3082 15.7466 10.3833 16.4286 9.70136C17.1105 9.01941 18.0355 8.63629 18.9999 8.63629C19.9643 8.63629 20.8892 9.01941 21.5712 9.70136C22.2531 10.3833 22.6363 11.3082 22.6363 12.2727ZM20.8181 12.2727C20.8181 12.7549 20.6265 13.2173 20.2855 13.5583C19.9446 13.8993 19.4821 14.0908 18.9999 14.0908C18.5177 14.0908 18.0552 13.8993 17.7142 13.5583C17.3733 13.2173 17.1817 12.7549 17.1817 12.2727C17.1817 11.7904 17.3733 11.328 17.7142 10.987C18.0552 10.646 18.5177 10.4545 18.9999 10.4545C19.4821 10.4545 19.9446 10.646 20.2855 10.987C20.6265 11.328 20.8181 11.7904 20.8181 12.2727Z" fill="url(#paint1_linear_13_12)"/>
<path fill-rule="evenodd" clip-rule="evenodd" d="M19 5C13.4773 5 9 9.47727 9 15C9 20.5227 13.4773 25 19 25C24.5227 25 29 20.5227 29 15C29 9.47727 24.5227 5 19 5ZM10.8182 15C10.8182 16.9 11.4664 18.6491 12.5527 20.0382C13.3157 19.0363 14.2999 18.2243 15.4286 17.6657C16.5572 17.1072 17.7998 16.8171 19.0591 16.8182C20.3021 16.817 21.529 17.0996 22.6463 17.6443C23.7636 18.1891 24.7418 18.9817 25.5064 19.9618C26.294 18.9287 26.8244 17.7229 27.0535 16.4442C27.2827 15.1654 27.204 13.8505 26.8241 12.6082C26.4441 11.3658 25.7738 10.2319 24.8686 9.30003C23.9634 8.36821 22.8493 7.66533 21.6185 7.24955C20.3877 6.83378 19.0756 6.71707 17.7908 6.90907C16.5059 7.10107 15.2853 7.59627 14.2298 8.35369C13.1743 9.11111 12.3144 10.109 11.7211 11.2647C11.1279 12.4205 10.8183 13.7009 10.8182 15ZM19 23.1818C17.1218 23.1846 15.3002 22.5385 13.8436 21.3527C14.4299 20.5134 15.2103 19.8281 16.1184 19.3552C17.0264 18.8822 18.0353 18.6356 19.0591 18.6364C20.0701 18.6356 21.0668 18.876 21.9663 19.3377C22.8658 19.7993 23.6422 20.469 24.2309 21.2909C22.763 22.5152 20.9114 23.1845 19 23.1818Z" fill="url(#paint2_linear_13_12)"/>
<defs>
<filter id="filter0_di_13_12" x="0" y="0" width="38" height="38" filterUnits="userSpaceOnUse" color-interpolation-filters="sRGB">
<feFlood flood-opacity="0" result="BackgroundImageFix"/>
<feColorMatrix in="SourceAlpha" type="matrix" values="0 0 0 0 0 0 0 0 0 0 0 0 0 0 0 0 0 0 127 0" result="hardAlpha"/>
<feOffset dy="4"/>
<feGaussianBlur stdDeviation="2"/>
<feComposite in2="hardAlpha" operator="out"/>
<feColorMatrix type="matrix" values="0 0 0 0 0 0 0 0 0 0 0 0 0 0 0 0 0 0 0.25 0"/>
<feBlend mode="normal" in2="BackgroundImageFix" result="effect1_dropShadow_13_12"/>
<feBlend mode="normal" in="SourceGraphic" in2="effect1_dropShadow_13_12" result="shape"/>
<feColorMatrix in="SourceAlpha" type="matrix" values="0 0 0 0 0 0 0 0 0 0 0 0 0 0 0 0 0 0 127 0" result="hardAlpha"/>
<feOffset dy="4"/>
<feGaussianBlur stdDeviation="2"/>
<feComposite in2="hardAlpha" operator="arithmetic" k2="-1" k3="1"/>
<feColorMatrix type="matrix" values="0 0 0 0 1 0 0 0 0 1 0 0 0 0 1 0 0 0 0.17 0"/>
<feBlend mode="normal" in2="shape" result="effect2_innerShadow_13_12"/>
</filter>
<linearGradient id="paint0_linear_13_12" x1="19" y1="0" x2="19" y2="30" gradientUnits="userSpaceOnUse">
<stop stop-color="#4B4B4B"/>
<stop offset="0.505989" stop-color="#5F5F5F"/>
<stop offset="1" stop-color="#4B4B4B"/>
</linearGradient>
<linearGradient id="paint1_linear_13_12" x1="18.9999" y1="8.63629" x2="18.9999" y2="15.909" gradientUnits="userSpaceOnUse">
<stop stop-color="#FFBD4C"/>
<stop offset="1" stop-color="#D87B03"/>
</linearGradient>
<linearGradient id="paint2_linear_13_12" x1="19" y1="5" x2="19" y2="25" gradientUnits="userSpaceOnUse">
<stop stop-color="#FFBD4C"/>
<stop offset="1" stop-color="#D87B03"/>
</linearGradient>
</defs>
</svg>
