<svg width="30" height="30" viewBox="0 0 30 30" fill="none" xmlns="http://www.w3.org/2000/svg">
<g filter="url(#filter0_i_2002_28)">
<rect width="30" height="30" rx="15" fill="url(#paint0_linear_2002_28)"/>
</g>
<g clip-path="url(#clip0_2002_28)">
<path d="M12.5 6.66663H7.49996C7.27895 6.66663 7.06698 6.75442 6.9107 6.9107C6.75442 7.06698 6.66663 7.27895 6.66663 7.49996V12.5C6.66663 12.721 6.75442 12.9329 6.9107 13.0892C7.06698 13.2455 7.27895 13.3333 7.49996 13.3333H12.5C12.721 13.3333 12.9329 13.2455 13.0892 13.0892C13.2455 12.9329 13.3333 12.721 13.3333 12.5V7.49996C13.3333 7.27895 13.2455 7.06698 13.0892 6.9107C12.9329 6.75442 12.721 6.66663 12.5 6.66663ZM12.5 16.6666H7.49996C7.27895 16.6666 7.06698 16.7544 6.9107 16.9107C6.75442 17.067 6.66663 17.2789 6.66663 17.5V22.5C6.66663 22.721 6.75442 22.9329 6.9107 23.0892C7.06698 23.2455 7.27895 23.3333 7.49996 23.3333H12.5C12.721 23.3333 12.9329 23.2455 13.0892 23.0892C13.2455 22.9329 13.3333 22.721 13.3333 22.5V17.5C13.3333 17.2789 13.2455 17.067 13.0892 16.9107C12.9329 16.7544 12.721 16.6666 12.5 16.6666ZM22.5 6.66663H17.5C17.2789 6.66663 17.067 6.75442 16.9107 6.9107C16.7544 7.06698 16.6666 7.27895 16.6666 7.49996V12.5C16.6666 12.721 16.7544 12.9329 16.9107 13.0892C17.067 13.2455 17.2789 13.3333 17.5 13.3333H22.5C22.721 13.3333 22.9329 13.2455 23.0892 13.0892C23.2455 12.9329 23.3333 12.721 23.3333 12.5V7.49996C23.3333 7.27895 23.2455 7.06698 23.0892 6.9107C22.9329 6.75442 22.721 6.66663 22.5 6.66663Z" stroke="url(#paint1_linear_2002_28)" stroke-width="1.66667" stroke-linejoin="round"/>
<path d="M16.6666 16.6666H23.3333M20 20H23.3333M16.6666 23.3333H23.3333" stroke="url(#paint2_linear_2002_28)" stroke-width="1.66667" stroke-linecap="round" stroke-linejoin="round"/>
</g>
<defs>
<filter id="filter0_i_2002_28" x="0" y="0" width="30" height="34" filterUnits="userSpaceOnUse" color-interpolation-filters="sRGB">
<feFlood flood-opacity="0" result="BackgroundImageFix"/>
<feBlend mode="normal" in="SourceGraphic" in2="BackgroundImageFix" result="shape"/>
<feColorMatrix in="SourceAlpha" type="matrix" values="0 0 0 0 0 0 0 0 0 0 0 0 0 0 0 0 0 0 127 0" result="hardAlpha"/>
<feOffset dy="4"/>
<feGaussianBlur stdDeviation="2"/>
<feComposite in2="hardAlpha" operator="arithmetic" k2="-1" k3="1"/>
<feColorMatrix type="matrix" values="0 0 0 0 1 0 0 0 0 1 0 0 0 0 1 0 0 0 0.17 0"/>
<feBlend mode="normal" in2="shape" result="effect1_innerShadow_2002_28"/>
</filter>
<linearGradient id="paint0_linear_2002_28" x1="15" y1="0" x2="15" y2="30" gradientUnits="userSpaceOnUse">
<stop stop-color="#4B4B4B"/>
<stop offset="0.505989" stop-color="#5F5F5F"/>
<stop offset="1" stop-color="#4B4B4B"/>
</linearGradient>
<linearGradient id="paint1_linear_2002_28" x1="15" y1="6.66663" x2="15" y2="23.3333" gradientUnits="userSpaceOnUse">
<stop stop-color="#FFBD4C"/>
<stop offset="1" stop-color="#D87B03"/>
</linearGradient>
<linearGradient id="paint2_linear_2002_28" x1="20" y1="16.6666" x2="20" y2="23.3333" gradientUnits="userSpaceOnUse">
<stop stop-color="#FFBD4C"/>
<stop offset="1" stop-color="#D87B03"/>
</linearGradient>
<clipPath id="clip0_2002_28">
<rect width="20" height="20" fill="white" transform="translate(5 5)"/>
</clipPath>
</defs>
</svg>
